<?xml version="1.0" encoding="utf-8"?>
<!-- Generator: Adobe Illustrator 27.0.0, SVG Export Plug-In . SVG Version: 6.00 Build 0)  -->
<svg version="1.1" id="Layer_1" xmlns="http://www.w3.org/2000/svg" xmlns:xlink="http://www.w3.org/1999/xlink" x="0px" y="0px"
	 viewBox="0 0 236.7 45.6" style="enable-background:new 0 0 236.7 45.6;" xml:space="preserve">
<style type="text/css">
	.st0{clip-path:url(#SVGID_00000026137939910231808160000005260030877095911848_);}
	.st1{clip-path:url(#SVGID_00000051344158988417672140000015223820354707713212_);}
	.st2{fill:#286F6A;}
	.st3{clip-path:url(#SVGID_00000132066962554751978420000002441252307252358314_);}
	.st4{clip-path:url(#SVGID_00000029754625552986749490000016586109783851663762_);}
	.st5{fill:#F2643F;}
</style>
<g>
	<defs>
		<rect id="SVGID_1_" x="2.4" y="24.2" width="18.8" height="10"/>
	</defs>
	<clipPath id="SVGID_00000134958230694485963400000018235143894294379675_">
		<use xlink:href="#SVGID_1_"  style="overflow:visible;"/>
	</clipPath>
	<g style="clip-path:url(#SVGID_00000134958230694485963400000018235143894294379675_);">
		<g>
			<defs>
				<path id="SVGID_00000116213559854374614420000017313542560382698381_" d="M4.4,24.2h14.3c0.5,0,1,0.2,1.4,0.6s0.6,0.9,0.6,1.4
					v5.4c0,0.5-0.2,1-0.6,1.4s-0.9,0.6-1.4,0.6H4.4c-0.5,0-1-0.2-1.4-0.6s-0.6-0.9-0.6-1.4v-5.4c0-0.5,0.2-1,0.6-1.4
					S3.8,24.2,4.4,24.2"/>
			</defs>
			<clipPath id="SVGID_00000171703077078751277870000007175788768453456050_">
				<use xlink:href="#SVGID_00000116213559854374614420000017313542560382698381_"  style="overflow:visible;"/>
			</clipPath>
			<g style="clip-path:url(#SVGID_00000171703077078751277870000007175788768453456050_);">
				<path class="st2" d="M2.4,24.2h18v9.4h-18V24.2z"/>
			</g>
		</g>
	</g>
</g>
<g>
	<defs>
		<rect id="SVGID_00000149380272576549066470000011992718806920530345_" x="220.8" y="28.9" width="14" height="14"/>
	</defs>
	<clipPath id="SVGID_00000044148486531116845210000016593145235081211026_">
		<use xlink:href="#SVGID_00000149380272576549066470000011992718806920530345_"  style="overflow:visible;"/>
	</clipPath>
	<g style="clip-path:url(#SVGID_00000044148486531116845210000016593145235081211026_);">
		<g>
			<defs>
				<path id="SVGID_00000177468883066625974570000005596861660994758313_" d="M227.8,28.9c-3.9,0-7,3.1-7,7s3.1,7,7,7
					c3.9,0,7-3.1,7-7S231.7,28.9,227.8,28.9"/>
			</defs>
			<clipPath id="SVGID_00000075125084634136059540000000609988056389955726_">
				<use xlink:href="#SVGID_00000177468883066625974570000005596861660994758313_"  style="overflow:visible;"/>
			</clipPath>
			<g style="clip-path:url(#SVGID_00000075125084634136059540000000609988056389955726_);">
				<path class="st5" d="M220.8,28.9h14v14h-14V28.9z"/>
			</g>
		</g>
	</g>
</g>
<g>
	<g transform="translate(118.08897, 200.190455)">
		<g>
			<path d="M-51.3-184.4c0,2.2-0.6,4.3-1.8,6.1c-1.2,1.8-3,3.1-5.3,4l8.1,15.3h-13.2l-6.5-13.3h-4.4v13.3H-86v-36.6h22.4
				c2.6,0,4.9,0.5,6.7,1.5c1.9,1,3.3,2.4,4.2,4.1C-51.8-188.3-51.3-186.4-51.3-184.4z M-63.3-183.9c0-1-0.3-1.8-1-2.4
				c-0.6-0.6-1.4-1-2.4-1h-7.7v6.8h7.7c0.9,0,1.7-0.3,2.4-1C-63.6-182.2-63.3-183-63.3-183.9z"/>
		</g>
	</g>
</g>
<g>
	<g transform="translate(149.08735, 200.190455)">
		<g>
			<path d="M-61.9-187.8c4.9,0,8.8,1.2,11.6,3.8c2.8,2.5,4.2,6.1,4.2,10.9c0,4.8-1.4,8.4-4.2,10.9c-2.8,2.5-6.7,3.8-11.6,3.8
				c-4.9,0-8.8-1.2-11.6-3.7c-2.8-2.5-4.2-6.1-4.2-10.9c0-4.8,1.4-8.5,4.2-11C-70.7-186.5-66.8-187.8-61.9-187.8z M-61.9-180.6
				c-3.5,0-5.2,2-5.2,6v3c0,4,1.7,5.9,5.2,5.9c3.5,0,5.3-2,5.3-5.9v-3C-56.7-178.6-58.4-180.6-61.9-180.6z"/>
		</g>
	</g>
</g>
<g>
	<g transform="translate(175.663082, 200.190455)">
		<g>
			<path d="M-57-184.2c1.1-1.1,2.4-2,4-2.6c1.5-0.6,3.1-0.9,4.8-0.9c3.2,0,5.7,0.9,7.3,2.7c1.6,1.8,2.5,4.4,2.5,7.8v18.2H-49V-176
				c0-1.2-0.3-2.2-0.9-2.9c-0.6-0.7-1.5-1.1-2.6-1.1c-1.3,0-2.4,0.4-3.2,1.3c-0.8,0.8-1.2,1.9-1.2,3.1v16.5h-10.6v-38.5H-57V-184.2z
				"/>
		</g>
	</g>
</g>
<g>
	<g transform="translate(202.238813, 200.190455)">
		<g>
			<path d="M-44.8-187.8c4.3,0,7.8,0.7,10.5,2.2c2.7,1.4,4,3.8,4,7v11c0,0.6,0.1,1.1,0.4,1.5c0.3,0.4,0.7,0.6,1.3,0.6h1.9v6.1
				c-0.1,0.1-0.4,0.2-0.8,0.4c-0.4,0.2-1.1,0.3-1.9,0.5c-0.8,0.2-1.7,0.2-2.8,0.2c-2.1,0-3.8-0.3-5.1-0.9c-1.3-0.6-2.2-1.5-2.7-2.6
				c-1.3,1.1-2.8,1.9-4.5,2.6s-3.6,1-5.9,1c-6.6,0-9.9-2.6-9.9-7.9c0-2.7,0.7-4.8,2.2-6.2c1.5-1.4,3.6-2.4,6.4-3
				c2.8-0.5,6.4-0.8,10.9-0.8v-1.4c0-1.1-0.4-1.9-1.1-2.5c-0.8-0.6-1.8-0.9-3-0.9c-1.1,0-2.1,0.2-2.9,0.6c-0.8,0.4-1.2,1-1.2,1.9
				v0.2h-10.4c0-0.2,0-0.4,0-0.8c0-2.7,1.3-4.8,3.8-6.3C-53.2-187-49.5-187.8-44.8-187.8z M-40.9-171.3c-3,0-5.2,0.3-6.7,1
				c-1.4,0.7-2.1,1.5-2.1,2.6c0,1.8,1.2,2.6,3.6,2.6c1.4,0,2.6-0.4,3.6-1.1c1.1-0.8,1.6-1.7,1.6-2.8V-171.3z"/>
		</g>
	</g>
</g>
<g>
	<g transform="translate(228.814545, 200.190455)">
		<g>
			<path d="M-30.5-187.8c3.2,0,5.7,0.9,7.3,2.7c1.6,1.8,2.5,4.4,2.5,7.8v18.2h-10.6V-176c0-1.2-0.3-2.2-0.9-2.9
				c-0.6-0.7-1.5-1.1-2.6-1.1c-1.3,0-2.4,0.4-3.2,1.3c-0.8,0.8-1.2,1.9-1.2,3.1v16.5h-10.6v-28.1h8.7l0.7,4.2
				c1.1-1.5,2.5-2.7,4.3-3.6C-34.4-187.3-32.5-187.8-30.5-187.8z"/>
		</g>
	</g>
</g>
</svg>
